<svg width="17" height="16" viewBox="0 0 17 16" fill="none" xmlns="http://www.w3.org/2000/svg">
<path d="M0.220098 6.16429C0.27506 5.99457 0.421282 5.87088 0.597322 5.84526L5.54274 5.12448L7.75445 0.629902C7.83316 0.469903 7.99564 0.368622 8.17352 0.368622C8.35143 0.368622 8.51389 0.469903 8.59262 0.629902L10.8044 5.12448L15.7498 5.84526C15.9258 5.87088 16.072 5.99457 16.127 6.16426C16.182 6.33397 16.1361 6.52025 16.0087 6.64478L12.4304 10.1433L13.275 15.0834C13.3051 15.2593 13.233 15.437 13.0891 15.5419C13.0076 15.6012 12.9112 15.6314 12.8143 15.6314C12.7399 15.6314 12.6653 15.6136 12.5969 15.5775L8.17355 13.2451L3.7504 15.5775C3.5929 15.6605 3.40212 15.6467 3.2582 15.5418C3.11429 15.437 3.04216 15.2592 3.07223 15.0833L3.91712 10.1433L0.338341 6.64475C0.210969 6.52025 0.165073 6.33397 0.220098 6.16429Z" fill="#FFB800"/>
</svg>
